<?xml version="1.0" encoding="utf-8"?>
<!-- Generator: Adobe Illustrator 18.1.0, SVG Export Plug-In . SVG Version: 6.00 Build 0)  -->
<svg version="1.1" id="Layer_1" xmlns="http://www.w3.org/2000/svg" xmlns:xlink="http://www.w3.org/1999/xlink" x="0px" y="0px"
	 viewBox="218 191 160 160" enable-background="new 0 0 576 576" xml:space="preserve">
<path fill="#BEB9BA" stroke="#333333" stroke-width="1.8239" stroke-linecap="round" stroke-linejoin="round" stroke-miterlimit="10" d="
	M-790.5,552.7"/>
<g>
	<path fill="#B7D0EC" stroke="#333333" stroke-width="2.0737" stroke-miterlimit="10" d="M369.6,273.6c0-41.3-34-74.8-75.6-73.7
		c-38.7,0.9-70.4,32.1-71.9,70.8c-0.9,23.1,8.9,44,24.7,58.1c0.4,0.3,0.9,0.1,0.9-0.4v-4.9c0-1.2,0.3-2.3,1-3.3
		c3.2-5.1,15-19.7,46.7-19.7c31.7,0,43.6,14.6,46.7,19.7c0.6,1,1,2.2,1,3.3v6.6c0,0.1,0.1,0.1,0.1,0.1
		C359.4,316.6,369.6,296.3,369.6,273.6z"/>
	<g>
		
			<path fill="#BEB9BA" stroke="#333333" stroke-width="2" stroke-linecap="round" stroke-linejoin="round" stroke-miterlimit="10" d="
			M343.2,323.5c0-1.2-0.3-2.3-0.9-3.3c-3.1-5.1-14.9-19.7-46.7-19.7c-31.8,0-43.6,14.7-46.7,19.7c-0.6,1-0.9,2.1-0.9,3.3v6.1
			c12.9,11.1,29.7,17.8,48,17.8c8.3,0,16.3-1.4,23.8-3.9l-6.1-3.5v-14.4h17v13.2c4.5-2.4,8.7-5.3,12.6-8.5V323.5z"/>
		
			<path fill="#BEB9BA" stroke="#333333" stroke-width="2" stroke-linecap="round" stroke-linejoin="round" stroke-miterlimit="10" d="
			M313.6,325.6V340l6.1,3.5c3.8-1.3,7.4-2.9,10.9-4.7v-13.2H313.6z"/>
	</g>
	
		<polyline fill="#BEB9BA" stroke="#333333" stroke-width="2" stroke-linecap="round" stroke-linejoin="round" stroke-miterlimit="10" points="
		314.1,329 322.1,332 330,329 	"/>
	<path fill="#FEE4D6" stroke="#333333" stroke-width="2" stroke-miterlimit="10" d="M325.5,243.8c0,0,10.2-0.4,10.2,10.5
		s-13,12.1-13,12.1"/>
	<path fill="#FEE4D6" stroke="#333333" stroke-width="2" stroke-miterlimit="10" d="M263.2,243.8c0,0-10.2-0.4-10.2,10.5
		s13,12.1,13,12.1"/>
	
		<path fill="#BEB9BA" stroke="#333333" stroke-width="2" stroke-linecap="round" stroke-linejoin="round" stroke-miterlimit="10" d="
		M308.2,295.6l5.3,2.7c0.6,0.3,0.9,0.9,0.8,1.5l-3.9,17.8c-0.2,1-1.6,1.5-2.5,0.9l-8.4-6c-0.6-0.4-0.8-1.1-0.5-1.7l7.1-14.5
		C306.4,295.5,307.4,295.2,308.2,295.6z"/>
	
		<path fill="#BEB9BA" stroke="#333333" stroke-width="2" stroke-linecap="round" stroke-linejoin="round" stroke-miterlimit="10" d="
		M283.1,295.6l-5.3,2.7c-0.6,0.3-0.9,0.9-0.8,1.5l3.9,17.8c0.2,1,1.6,1.5,2.5,0.9l8.4-6c0.6-0.4,0.8-1.1,0.5-1.7l-7.1-14.5
		C284.9,295.5,283.9,295.2,283.1,295.6z"/>
	
		<rect x="294.1" y="309.8" fill="#BEB9BA" stroke="#333333" stroke-width="1.9929" stroke-linecap="round" stroke-linejoin="round" stroke-miterlimit="10" width="3.1" height="37.6"/>
	<path fill="#FEE4D6" stroke="#333333" stroke-width="2" stroke-miterlimit="10" d="M306,290.7v9.2c0,3.8-1.4,7.5-4.1,9.9
		c-1.6,1.4-3.7,2.5-6.3,2.5c-2.7,0-4.8-1.1-6.3-2.5c-2.7-2.4-4.1-6.1-4.1-9.9v-9.2"/>
	<path fill="#FEE4D6" stroke="#333333" stroke-width="2" stroke-miterlimit="10" d="M263,218.1c0,0-10.2,75.6,31.7,75.6
		s31.7-75.6,31.7-75.6"/>
	<g>
		<path fill="#564C3C" stroke="#333333" stroke-width="2" stroke-miterlimit="10" d="M264.8,231.2c2.3-1.9,5.7-2.9,6.9-5.2
			c0.6-1.3,1.1-4.1,2.4-4.9c1.9-1.1,5.3,0.8,7.1,1.4c11.6,4.2,24.6,1.2,36.5,4.3c2.4,0.6,6.3,2.2,8.7,0.8c6.9-4.4-1.9-15.3-5.8-18
			c-1.4-0.9-17.7-9.9-16.1-11c0.5-0.4,1-0.7,1.3-1.2c-3.5-0.1-7.1,1.5-10.8,1.3c-0.8,0-1.6-0.1-2.1-0.6c-1.2-1.1,0.3-2.1-1-2.9
			c-0.5-0.3-2,0.1-2.6,0.1c-4.7,0.4-9.4,1.7-14.1,2.7c-5.2,1.1-9.3,6.5-10,12c-1.5-1.3-4-0.1-4.8,1.7c-0.8,1.8-0.5,4-0.2,6
			c0.4,2.6,0.9,5.1,1.3,7.7c0.3,1.8-0.8,5.5,0.5,6.8C262.4,232.5,261.9,233.6,264.8,231.2z"/>
		<path fill="#564C3C" stroke="#333333" stroke-width="2" stroke-miterlimit="10" d="M322.1,224.4"/>
	</g>
	<g>
		<path fill="#FDF9F8" stroke="#333333" stroke-width="2" stroke-miterlimit="10" d="M321.7,260h-18.7c-2.2,0-4.1-1.8-4.1-4.1v-13.7
			c0-2.2,1.8-4.1,4.1-4.1h18.7c2.2,0,4.1,1.8,4.1,4.1V256C325.7,258.2,323.9,260,321.7,260z"/>
		<path fill="#FDF9F8" stroke="#333333" stroke-width="2" stroke-miterlimit="10" d="M286.3,260h-18.7c-2.2,0-4.1-1.8-4.1-4.1v-13.7
			c0-2.2,1.8-4.1,4.1-4.1h18.7c2.2,0,4.1,1.8,4.1,4.1V256C290.4,258.2,288.6,260,286.3,260z"/>
		
			<line fill="#FEE4D6" stroke="#333333" stroke-width="2" stroke-linecap="round" stroke-miterlimit="10" x1="291.2" y1="243.6" x2="298.3" y2="243.6"/>
		<path fill="none" stroke="#333333" stroke-width="2" stroke-linecap="round" stroke-miterlimit="10" d="M303.7,238.4
			c0,0,2.4-3.7,10.7-3.7c8.3,0,9.9,3.7,9.9,3.7"/>
		<path fill="none" stroke="#333333" stroke-width="2" stroke-linecap="round" stroke-miterlimit="10" d="M267.1,238.4
			c0,0,2.4-3.7,10.7-3.7c8.3,0,9.9,3.7,9.9,3.7"/>
		<circle fill="#333333" cx="311.9" cy="248.7" r="3"/>
		<circle fill="#333333" cx="280.4" cy="248.7" r="3"/>
		<path fill="none" stroke="#333333" stroke-width="2" stroke-linecap="round" stroke-miterlimit="10" d="M290.5,264.4c0,0,0,5,5,5
			c5,0,5.8-5,5.8-5"/>
		<path fill="none" stroke="#333333" stroke-width="2" stroke-linecap="round" stroke-linejoin="round" stroke-miterlimit="10" d="
			M292.7,280.7c0,0,11.1,1.6,12.7-3.6"/>
	</g>
</g>
<g>
	<g>
		<path fill="#B7D0EC" stroke="#333333" stroke-width="2" stroke-miterlimit="10" d="M-557.5,806.2c0-42.2-34.2-76.4-76.4-76.4
			c-42.2,0-76.4,34.2-76.4,76.4c0,25.7,12.7,48.4,32.1,62.2c0.1-6,0.2-13.3,0.5-20.7c0.8-18.5,43.5-23.9,43.5-23.9h0.5
			c0,0,42.7,5.4,43.5,23.9c0.3,7.5,0.5,14.7,0.5,20.7C-570.2,854.7-557.5,831.9-557.5,806.2z"/>
		
			<path fill="#BEB9BA" stroke="#333333" stroke-width="1.8239" stroke-linecap="round" stroke-linejoin="round" stroke-miterlimit="10" d="
			M-589.6,868.5c-11.8,8.4-26.1,13.5-41.5,14.1"/>
		
			<path fill="#BEB9BA" stroke="#333333" stroke-width="1.8239" stroke-linecap="round" stroke-linejoin="round" stroke-miterlimit="10" d="
			M-633.7,823.8h-0.5c0,0-42.7,5.4-43.5,23.9c-0.3,7.5-0.5,14.7-0.5,20.7c11.8,8.4,26.1,13.5,41.6,14.1V835h5.4v47.5
			c15.5-0.5,29.7-5.7,41.5-14.1c-0.1-6-0.2-13.3-0.5-20.7C-591,829.3-633.7,823.8-633.7,823.8z"/>
		
			<path fill="#BEB9BA" stroke="#333333" stroke-width="2" stroke-linecap="round" stroke-linejoin="round" stroke-miterlimit="10" d="
			M-631.2,882.6V835h-5.4v47.5c0.9,0,1.8,0.1,2.7,0.1C-633,882.6-632.1,882.6-631.2,882.6z"/>
	</g>
	
		<path fill="#BEB9BA" stroke="#333333" stroke-width="1.9017" stroke-linecap="round" stroke-linejoin="round" stroke-miterlimit="10" d="
		M-646.1,820.5l-8.4,4.7c-0.6,0.3-0.9,1-0.7,1.7l4.6,16.3c0.3,1.1,1.7,1.5,2.5,0.6l9.5-10.2"/>
	
		<path fill="#BEB9BA" stroke="#333333" stroke-width="1.9017" stroke-linecap="round" stroke-linejoin="round" stroke-miterlimit="10" d="
		M-620.6,820.5l9.4,5.3l-4.9,17.3c-0.3,1.2-1.8,1.6-2.7,0.6l-9.4-10.1"/>
	<g>
		<path fill="#FEE4D6" stroke="#333333" stroke-width="2" stroke-miterlimit="10" d="M-621.3,814.9v6.9c0,0-3.4,13.9-12.6,13.9
			s-12.2-13.9-12.2-13.9v-6.9"/>
		<path fill="#FEE4D6" stroke="#333333" stroke-width="2" stroke-linecap="round" stroke-miterlimit="10" d="M-603.2,767.6
			c0,0,3,0.2,3,1.4c0,0.6-0.1,8.7,0,12.9c0,1.3-1.1,2.4-2.4,2.4h-0.6"/>
		<path fill="#FEE4D6" stroke="#333333" stroke-width="2" stroke-linecap="round" stroke-miterlimit="10" d="M-665,767.6
			c0,0-3,0.2-3,1.4c0,0.6,0.1,8.7,0,12.9c0,1.3,1.1,2.4,2.4,2.4h0.6"/>
		<path fill="#FEE4D6" stroke="#333333" stroke-width="2" stroke-miterlimit="10" d="M-604.1,753.1c0.4,3,0.6,6.1,0.7,9.1
			c0.4,9.8,0.4,19.8-1.9,29.4c-3.2,13.4-10.3,25.9-28.6,25.7c-22.4-0.2-28.8-18.8-30.5-37.7c-1.6-17.2-1.1-37.5,15.4-45.4
			c14.1-6.8,37.4-6.2,43.5,12.7C-604.9,748.9-604.4,751-604.1,753.1z"/>
	</g>
	
		<path fill="#2B221B" stroke="#333333" stroke-width="2" stroke-linecap="round" stroke-linejoin="round" stroke-miterlimit="10" d="
		M-659.1,741.7c-0.2-0.3-0.3-0.7-0.3-1c0-0.7,0.4-1.2,0.7-1.8c3.5-5.2,8.1-9.7,13.5-13c5.6-3.4,11-4.1,17.2-5.7
		c-2.2,0.6-4.4,1.2-6.6,1.8c5.4-0.9,10.9-0.7,16.3,0.4c-1.8,1-3.9,1.5-6,1.4c8.6,0.5,18.8,6.3,21,15.6c1.1,4.7,2.4,12.6,0.7,17.2
		c-0.2,0.6-0.9,1.1-1.6,0.9c-0.4-0.1-0.6-0.4-0.8-0.7c-2.7-3.3-6.7-5.8-10.1-8.3c-3.8-2.7-7.9-5-12.6-5.9c-9.4-1.7-19.2,3-28.6,0.8
		C-657.4,743.1-658.6,742.6-659.1,741.7z"/>
	<path fill="#2B221B" stroke="#333333" stroke-width="2" stroke-miterlimit="10" d="M-659.4,743.6c0.1-0.7-0.6-1.2-1.2-0.8
		c-0.4,0.2-0.7,0.4-0.8,0.5c-1,0.8-2.1,2.5-2.5,4c-0.7,2.8-1.1,4.2-1,6.6c0,1.3,0.9,2.5,0.6,3.8c0.3-1.8,0.3-2.9,0.8-4.7
		c0.3-1.2,0.7-2.6,1.3-3.6c0.7-1.2,1.6-2.1,2.1-3.5C-659.8,745-659.6,744.3-659.4,743.6z"/>
	<path fill="none" stroke="#333333" stroke-width="2" stroke-linecap="round" stroke-miterlimit="10" d="M-624.6,761.3
		c0,0,5.7-1.4,9.6-0.7c3.9,0.7,5.3,2.5,5.3,2.5"/>
	<path fill="none" stroke="#333333" stroke-width="2" stroke-linecap="round" stroke-miterlimit="10" d="M-644.4,761.3
		c0,0-5.7-1.4-9.6-0.7c-3.9,0.7-5.3,2.5-5.3,2.5"/>
	<path fill="none" stroke="#333333" stroke-width="2" stroke-linecap="round" stroke-miterlimit="10" d="M-638.7,786.6
		c0,0,0.1,3.6,4.4,3.6c4.3,0,4.5-3.6,4.5-3.6"/>
	<path fill="none" stroke="#333333" stroke-width="2" stroke-linecap="round" stroke-miterlimit="10" d="M-647.6,797.3
		c0,0,4.7,4.9,13.2,4.9c8.6,0,14.2-4.9,14.2-4.9"/>
	<circle fill="#FFFFFF" cx="-633.9" cy="845.5" r="0.8"/>
	<circle fill="#FFFFFF" cx="-633.9" cy="859.3" r="0.8"/>
	<circle fill="#FFFFFF" cx="-633.9" cy="873.1" r="0.8"/>
	<g>
		
			<polygon fill="#BEB9BA" stroke="#333333" stroke-width="2" stroke-linecap="round" stroke-linejoin="round" stroke-miterlimit="10" points="
			-619.7,854.4 -619.7,868.9 -611.2,873.7 -602.6,868.9 -602.6,854.4 		"/>
		
			<polyline fill="#BEB9BA" stroke="#333333" stroke-width="2" stroke-linecap="round" stroke-linejoin="round" stroke-miterlimit="10" points="
			-619.1,857.9 -611.1,860.9 -603.2,857.9 		"/>
	</g>
	<g>
		<path fill="#FDF9F8" stroke="#333333" stroke-width="2" stroke-miterlimit="10" d="M-611.5,782.8h-10.6c-4.3,0-7.8-3.5-7.8-7.8
			v-5.4c0-4.3,3.5-7.8,7.8-7.8h10.6c4.3,0,7.8,3.5,7.8,7.8v5.4C-603.7,779.3-607.2,782.8-611.5,782.8z"/>
		<path fill="#FDF9F8" stroke="#333333" stroke-width="2" stroke-miterlimit="10" d="M-646.5,782.8h-10.6c-4.3,0-7.8-3.5-7.8-7.8
			v-5.4c0-4.3,3.5-7.8,7.8-7.8h10.6c4.3,0,7.8,3.5,7.8,7.8v5.4C-638.7,779.3-642.2,782.8-646.5,782.8z"/>
		
			<line fill="#FEE4D6" stroke="#333333" stroke-width="1.8831" stroke-linecap="round" stroke-miterlimit="10" x1="-638.7" y1="767.1" x2="-629.5" y2="767.1"/>
	</g>
	<circle fill="#333333" cx="-618.5" cy="772.2" r="2.6"/>
	<circle fill="#333333" cx="-650.2" cy="772.2" r="2.6"/>
</g>
</svg>
